<?xml version="1.0" encoding="us-ascii" standalone="no"?><svg xmlns="http://www.w3.org/2000/svg" xmlns:xlink="http://www.w3.org/1999/xlink" contentStyleType="text/css" height="750px" preserveAspectRatio="none" style="width:429px;height:750px;background:#FFFFFF;" version="1.1" viewBox="0 0 429 750" width="429px" zoomAndPan="magnify"><defs/><g><text fill="#000000" font-family="sans-serif" font-size="14" font-weight="bold" lengthAdjust="spacing" textLength="83" x="166" y="22.9951">Uni4Exe07</text><ellipse cx="128" cy="53.2969" fill="#222222" rx="10" ry="10" style="stroke:none;stroke-width:1.0;"/><rect fill="#F1F1F1" height="33.9688" rx="12.5" ry="12.5" style="stroke:#181818;stroke-width:0.5;" width="242" x="7" y="104.2969"/><text fill="#000000" font-family="sans-serif" font-size="12" lengthAdjust="spacing" textLength="222" x="17" y="125.4355">escreva('Entre com peso da carta: ')</text><rect fill="#F1F1F1" height="33.9688" rx="12.5" ry="12.5" style="stroke:#181818;stroke-width:0.5;" width="82" x="87" y="179.2969"/><text fill="#000000" font-family="sans-serif" font-size="12" lengthAdjust="spacing" textLength="62" x="97" y="200.4355">leia(peso)</text><rect fill="#F1F1F1" height="33.9688" rx="12.5" ry="12.5" style="stroke:#181818;stroke-width:0.5;" width="109" x="73.5" y="254.2969"/><text fill="#000000" font-family="sans-serif" font-size="12" lengthAdjust="spacing" textLength="89" x="83.5" y="275.4355">valorPagar = 0</text><g id="elem_#9"><polygon fill="#F1F1F1" points="128,334.2969,140,346.2969,128,358.2969,116,346.2969,128,334.2969" style="stroke:#181818;stroke-width:0.5;"/></g><rect fill="#F1F1F1" height="33.9688" rx="12.5" ry="12.5" style="stroke:#181818;stroke-width:0.5;" width="128" x="62" y="471.2969"/><text fill="#000000" font-family="sans-serif" font-size="12" lengthAdjust="spacing" textLength="108" x="72" y="492.4355">valorPagar = 0.45</text><rect fill="#555555" height="8" style="stroke:none;stroke-width:1.0;" width="80" x="133" y="600.2969"/><rect fill="#F1F1F1" height="33.9688" rx="12.5" ry="12.5" style="stroke:#181818;stroke-width:0.5;" width="185" x="194.5" y="329.2969"/><text fill="#000000" font-family="sans-serif" font-size="12" lengthAdjust="spacing" textLength="165" x="204.5" y="350.4355">pesoExcedido = peso - 50</text><rect fill="#F1F1F1" height="33.9688" rx="12.5" ry="12.5" style="stroke:#181818;stroke-width:0.5;" width="229" x="174.5" y="417.2969"/><text fill="#000000" font-family="sans-serif" font-size="12" lengthAdjust="spacing" textLength="209" x="184.5" y="438.4355">qtAdicional = (pesoExcedido / 20)</text><rect fill="#F1F1F1" height="33.9688" rx="12.5" ry="12.5" style="stroke:#181818;stroke-width:0.5;" width="266" x="157" y="525.2969"/><text fill="#000000" font-family="sans-serif" font-size="12" lengthAdjust="spacing" textLength="246" x="167" y="546.4355">valorPagar = 0.45f + 0.45f * qtAdicional;</text><rect fill="#F1F1F1" height="33.9688" rx="12.5" ry="12.5" style="stroke:#181818;stroke-width:0.5;" width="258" x="44" y="649.2969"/><text fill="#000000" font-family="sans-serif" font-size="12" lengthAdjust="spacing" textLength="238" x="54" y="670.4355">escreva('Custo do selo: ' + valorPagar)</text><ellipse cx="173" cy="734.2969" fill="none" rx="10" ry="10" style="stroke:#222222;stroke-width:1.0;"/><ellipse cx="173.5" cy="734.7969" fill="#222222" rx="6" ry="6" style="stroke:none;stroke-width:1.0;"/><!--link start to escreva('Entre com peso da carta: ')--><g id="link_start_escreva('Entre com peso da carta: ')"><path d="M128,63.4739 C128,72.5659 128,86.8239 128,98.7819 " fill="none" id="start-to-escreva('Entre com peso da carta: ')" style="stroke:#181818;stroke-width:1.0;"/><polygon fill="#181818" points="128,104.0879,132,95.0879,128,99.0879,124,95.0879,128,104.0879" style="stroke:#181818;stroke-width:1.0;"/></g><!--link escreva('Entre com peso da carta: ') to leia(peso)--><g id="link_escreva('Entre com peso da carta: ')_leia(peso)"><path d="M128,138.4979 C128,148.9889 128,162.7599 128,174.1149 " fill="none" id="escreva('Entre com peso da carta: ')-to-leia(peso)" style="stroke:#181818;stroke-width:1.0;"/><polygon fill="#181818" points="128,179.1409,132,170.1409,128,174.1409,124,170.1409,128,179.1409" style="stroke:#181818;stroke-width:1.0;"/></g><!--link leia(peso) to valorPagar = 0--><g id="link_leia(peso)_valorPagar = 0"><path d="M128,213.4979 C128,223.9889 128,237.7599 128,249.1149 " fill="none" id="leia(peso)-to-valorPagar = 0" style="stroke:#181818;stroke-width:1.0;"/><polygon fill="#181818" points="128,254.1409,132,245.1409,128,249.1409,124,245.1409,128,254.1409" style="stroke:#181818;stroke-width:1.0;"/></g><!--link valorPagar = 0 to #9--><g id="link_valorPagar = 0_#9"><path d="M128,288.4979 C128,300.4459 128,316.6479 128,328.6909 " fill="none" id="valorPagar = 0-to-#9" style="stroke:#181818;stroke-width:1.0;"/><polygon fill="#181818" points="128,333.9009,132,324.9009,128,328.9009,124,324.9009,128,333.9009" style="stroke:#181818;stroke-width:1.0;"/><text fill="#000000" font-family="sans-serif" font-size="11" lengthAdjust="spacing" textLength="68" x="44.275" y="323.7893">peso &lt;= 50</text></g><!--link #9 to valorPagar = 0.45--><g id="link_#9_valorPagar = 0.45"><path d="M127.843,358.2829 C127.512,381.4379 126.738,435.6079 126.306,465.8749 " fill="none" id="#9-to-valorPagar = 0.45" style="stroke:#181818;stroke-width:1.0;"/><polygon fill="#181818" points="126.235,470.8769,130.3632,461.9349,126.3064,465.8774,122.364,461.8207,126.235,470.8769" style="stroke:#181818;stroke-width:1.0;"/><text fill="#000000" font-family="sans-serif" font-size="11" lengthAdjust="spacing" textLength="23" x="129" y="394.5073">true</text></g><!--link valorPagar = 0.45 to REDIRECT_CHECK--><g id="link_valorPagar = 0.45_REDIRECT_CHECK"><path d="M129.683,505.5369 C133.235,519.9829 139.216,541.5129 147,559.2969 C152.893,572.7599 162.043,587.2199 167.77,595.7509 " fill="none" id="valorPagar = 0.45-to-REDIRECT_CHECK" style="stroke:#181818;stroke-width:1.0;"/><polygon fill="#181818" points="170.833,600.2349,169.0598,590.547,168.0129,596.1061,162.4537,595.0592,170.833,600.2349" style="stroke:#181818;stroke-width:1.0;"/></g><!--link #9 to pesoExcedido = peso - 50--><g id="link_#9_pesoExcedido = peso - 50"><path d="M140.212,346.2969 C151.542,346.2969 169.568,346.2969 189.166,346.2969 " fill="none" id="#9-to-pesoExcedido = peso - 50" style="stroke:#181818;stroke-width:1.0;"/><polygon fill="#181818" points="194.179,346.2969,185.179,342.2969,189.179,346.2969,185.179,350.2969,194.179,346.2969" style="stroke:#181818;stroke-width:1.0;"/><text fill="#000000" font-family="sans-serif" font-size="11" lengthAdjust="spacing" textLength="28" x="153.25" y="340.5073">false</text></g><!--link pesoExcedido = peso - 50 to qtAdicional = (pesoExcedido / 20)--><g id="link_pesoExcedido = peso - 50_qtAdicional = (pesoExcedido / 20)"><path d="M287.376,363.4729 C287.695,377.1669 288.154,396.9029 288.502,411.9019 " fill="none" id="pesoExcedido = peso - 50-to-qtAdicional = (pesoExcedido / 20)" style="stroke:#181818;stroke-width:1.0;"/><polygon fill="#181818" points="288.626,417.1939,292.414,408.1026,288.5089,412.1952,284.4162,408.2901,288.626,417.1939" style="stroke:#181818;stroke-width:1.0;"/></g><!--link qtAdicional = (pesoExcedido / 20) to valorPagar = 0.45f + 0.45f * qtAdicional;--><g id="link_qtAdicional = (pesoExcedido / 20)_valorPagar = 0.45f + 0.45f * qtAdicional;"><path d="M289.152,451.3959 C289.324,469.6849 289.607,499.6119 289.798,519.8639 " fill="none" id="qtAdicional = (pesoExcedido / 20)-to-valorPagar = 0.45f + 0.45f * qtAdicional;" style="stroke:#181818;stroke-width:1.0;"/><polygon fill="#181818" points="289.847,525.0459,293.7619,516.0086,289.7998,520.0461,285.7623,516.084,289.847,525.0459" style="stroke:#181818;stroke-width:1.0;"/></g><!--link valorPagar = 0.45f + 0.45f * qtAdicional; to REDIRECT_CHECK--><g id="link_valorPagar = 0.45f + 0.45f * qtAdicional;_REDIRECT_CHECK"><path d="M258.646,559.3759 C233.863,572.0849 200.729,589.0769 183.86,597.7279 " fill="none" id="valorPagar = 0.45f + 0.45f * qtAdicional;-to-REDIRECT_CHECK" style="stroke:#181818;stroke-width:1.0;"/><polygon fill="#181818" points="179.174,600.1309,189.0076,599.5831,183.623,597.8492,185.3569,592.4646,179.174,600.1309" style="stroke:#181818;stroke-width:1.0;"/></g><!--link REDIRECT_CHECK to escreva('Custo do selo: ' + valorPagar)--><g id="link_REDIRECT_CHECK_escreva('Custo do selo: ' + valorPagar)"><path d="M173,608.5229 C173,615.1839 173,630.9449 173,644.1749 " fill="none" id="REDIRECT_CHECK-to-escreva('Custo do selo: ' + valorPagar)" style="stroke:#181818;stroke-width:1.0;"/><polygon fill="#181818" points="173,649.282,177,640.282,173,644.282,169,640.282,173,649.282" style="stroke:#181818;stroke-width:1.0;"/></g><!--link escreva('Custo do selo: ' + valorPagar) to end--><g id="link_escreva('Custo do selo: ' + valorPagar)_end"><path d="M173,683.6115 C173,694.5337 173,708.7652 173,719.1962 " fill="none" id="escreva('Custo do selo: ' + valorPagar)-to-end" style="stroke:#181818;stroke-width:1.0;"/><polygon fill="#181818" points="173,724.2669,177,715.2669,173,719.2669,169,715.2669,173,724.2669" style="stroke:#181818;stroke-width:1.0;"/></g><!--SRC=[XL5DImCn4BtxAnwvTBUokaYBe6v1re3YHOezbI8XEwk1c6YIblvyPxVRMlNWAMJUr_0ccMG92sScSalbvGcGZNCKnGo2eWwqKTb8kXG8sh_ZWw97ew1LIEeAero05HtRab5P1-V3G6oKzU59lQg02gKOngQ5w5rkAanBWVH6Zg4UNAQmfjLlvTbaAlOCL5KrbtSFSra_lzJtidxa0ODa8-quisMh-BFQfSYjfiOqddtwqABBF9Y9ptJR66syKvOPsG_5EIxA_8ZxPwaMfyCxnf7HzV_BkiQq-vOE9TVhcBXRZqZMSxNi_XsP3_NnRRu0]--></g></svg>